<svg xmlns="http://www.w3.org/2000/svg" width="512" height="320" viewBox="0 0 512 320" role="img" aria-label="Alto Bar Stool">
  
  <defs>
    <filter id="softShadow" x="-40%" y="-40%" width="180%" height="180%">
      <feDropShadow dx="0" dy="14" stdDeviation="14" flood-color="#000" flood-opacity="0.24"/>
    </filter>
    <linearGradient id="studioBg" x1="0" y1="0" x2="0" y2="1">
      <stop offset="0%" stop-color="#fbfbfa"/>
      <stop offset="100%" stop-color="#e8e6e1"/>
    </linearGradient>
    <radialGradient id="floorFade" cx="50%" cy="60%" r="52%">
      <stop offset="0%" stop-color="#d4d0c8" stop-opacity="0.58"/>
      <stop offset="100%" stop-color="#d4d0c8" stop-opacity="0"/>
    </radialGradient>
  </defs>

  <rect width="512" height="320" fill="url(#studioBg)"/>
  <ellipse cx="256" cy="255" rx="172" ry="38" fill="url(#floorFade)"/>
  
        <g filter="url(#softShadow)" transform="translate(0 4)">
          <rect x="132" y="142" width="248" height="62" rx="28" fill="#d9d2c7"/>
          <rect x="154" y="106" width="204" height="62" rx="26" fill="#b8aa99"/>
          <rect x="122" y="152" width="46" height="76" rx="20" fill="#b8aa99"/>
          <rect x="344" y="152" width="46" height="76" rx="20" fill="#b8aa99"/>
          <rect x="178" y="160" width="58" height="46" rx="14" fill="#eee8de" opacity="0.78"/>
          <rect x="238" y="160" width="58" height="46" rx="14" fill="#eee8de" opacity="0.62"/>
          <rect x="298" y="160" width="58" height="46" rx="14" fill="#eee8de" opacity="0.78"/>
          <rect x="170" y="219" width="18" height="22" rx="5" fill="#4a4039"/>
          <rect x="324" y="219" width="18" height="22" rx="5" fill="#4a4039"/>
        </g>
</svg>